# xmcd
#
# Track frame offsets:
#	150
#	20730
#	41795
#	60247
#	81435
#	101425
#	119495
#	143725
#	166402
#	189960
#	224137
#	246047
#	268920
#
# Disc length: 3937 seconds
#
# Revision: 1
# Processed by: cddbd v1.5.1PL0 Copyright (c) Steve Scherf et al.
# Submitted via: CDex 1.50Beta5
#
DISCID=bf0f5f0d
DTITLE=宇崎竜童 - しなやかに したたかに〜女たちへ2
DYEAR=1994
DGENRE=
TTITLE0=そしてギルティ
TTITLE1=思い出に恋して
TTITLE2=イミテイション・ゴールド
TTITLE3=寝た子を起こす子守唄
TTITLE4=ないないづくし
TTITLE5=硝子坂
TTITLE6=BIRTHDAY
TTITLE7=シングル・ガール
TTITLE8=NO MORE ENCORE
TTITLE9=拳の中の地図
TTITLE10=夢先案内人
TTITLE11=歌い継がれてゆく歌のように
TTITLE12=しなやかにしたたかに
EXTD=
EXTT0=
EXTT1=
EXTT2=
EXTT3=
EXTT4=
EXTT5=
EXTT6=
EXTT7=
EXTT8=
EXTT9=
EXTT10=
EXTT11=
EXTT12=
PLAYORDER=
